<svg width="24" height="24" viewBox="0 0 24 24" fill="none" xmlns="http://www.w3.org/2000/svg">
<path d="M21.6749 14.6648L20.1398 13.3523C20.2124 12.907 20.2499 12.4523 20.2499 11.9976C20.2499 11.5429 20.2124 11.0883 20.1398 10.6429L21.6749 9.33044C21.7907 9.23132 21.8736 9.09929 21.9125 8.95193C21.9515 8.80456 21.9446 8.64883 21.8929 8.50544L21.8718 8.44451C21.4492 7.26331 20.8163 6.16833 20.0038 5.21248L19.9617 5.16326C19.8631 5.04736 19.7317 4.96405 19.5849 4.92431C19.438 4.88456 19.2826 4.89024 19.139 4.9406L17.2335 5.61794C16.5304 5.04138 15.7452 4.58669 14.8968 4.26794L14.5288 2.27576C14.5011 2.12586 14.4284 1.98795 14.3204 1.88036C14.2123 1.77277 14.0742 1.70059 13.9241 1.67341L13.8609 1.66169C12.6398 1.44138 11.3554 1.44138 10.1343 1.66169L10.071 1.67341C9.92102 1.70059 9.78283 1.77277 9.67482 1.88036C9.56681 1.98795 9.4941 2.12586 9.46634 2.27576L9.09603 4.27732C8.25436 4.59615 7.47057 5.0506 6.77571 5.62263L4.85618 4.9406C4.71266 4.88984 4.5571 4.88395 4.41015 4.92372C4.26321 4.9635 4.13185 5.04704 4.03353 5.16326L3.99134 5.21248C3.1798 6.16901 2.54705 7.26381 2.12337 8.44451L2.10228 8.50544C1.99681 8.79841 2.08353 9.12654 2.32024 9.33044L3.87415 10.657C3.80149 11.0976 3.76634 11.5476 3.76634 11.9953C3.76634 12.4453 3.80149 12.8953 3.87415 13.3336L2.32024 14.6601C2.20445 14.7593 2.12158 14.8913 2.08264 15.0387C2.04371 15.186 2.05056 15.3418 2.10228 15.4851L2.12337 15.5461C2.54759 16.7273 3.17571 17.8172 3.99134 18.7781L4.03353 18.8273C4.13209 18.9432 4.26346 19.0265 4.41031 19.0663C4.55717 19.106 4.71262 19.1003 4.85618 19.05L6.77571 18.3679C7.47415 18.9422 8.25462 19.3969 9.09603 19.7133L9.46634 21.7148C9.4941 21.8647 9.56681 22.0026 9.67482 22.1102C9.78283 22.2178 9.92102 22.29 10.071 22.3172L10.1343 22.3289C11.3666 22.5504 12.6286 22.5504 13.8609 22.3289L13.9241 22.3172C14.0742 22.29 14.2123 22.2178 14.3204 22.1102C14.4284 22.0026 14.5011 21.8647 14.5288 21.7148L14.8968 19.7226C15.7449 19.4047 16.5345 18.9485 17.2335 18.3726L19.139 19.05C19.2825 19.1007 19.4381 19.1066 19.585 19.0669C19.732 19.0271 19.8633 18.9435 19.9617 18.8273L20.0038 18.7781C20.8195 17.8148 21.4476 16.7273 21.8718 15.5461L21.8929 15.4851C21.9984 15.1969 21.9116 14.8687 21.6749 14.6648ZM18.4757 10.9195C18.5343 11.2734 18.5648 11.6367 18.5648 12C18.5648 12.3633 18.5343 12.7265 18.4757 13.0804L18.321 14.0203L20.0718 15.5179C19.8064 16.1294 19.4714 16.7082 19.0734 17.2429L16.8984 16.4719L16.1624 17.0765C15.6023 17.5359 14.9788 17.8969 14.3038 18.15L13.4109 18.4851L12.9913 20.7586C12.3294 20.8336 11.6611 20.8336 10.9991 20.7586L10.5796 18.4804L9.69368 18.1406C9.02571 17.8875 8.40462 17.5265 7.84915 17.0695L7.11321 16.4625L4.92415 17.2406C4.52571 16.7039 4.1929 16.125 3.92571 15.5156L5.69524 14.0039L5.5429 13.0664C5.48665 12.7172 5.45618 12.3562 5.45618 12C5.45618 11.6414 5.48431 11.2828 5.5429 10.9336L5.69524 9.99607L3.92571 8.48435C4.19056 7.87263 4.52571 7.29607 4.92415 6.75935L7.11321 7.53748L7.84915 6.93044C8.40462 6.47341 9.02571 6.11248 9.69368 5.85935L10.582 5.52419L11.0015 3.24607C11.6601 3.17107 12.3327 3.17107 12.9937 3.24607L13.4132 5.51951L14.3062 5.85466C14.9788 6.10779 15.6046 6.46873 16.1648 6.9281L16.9007 7.53279L19.0757 6.76169C19.4742 7.29841 19.807 7.87732 20.0742 8.48669L18.3234 9.98435L18.4757 10.9195ZM11.9999 7.6406C9.72181 7.6406 7.87493 9.48748 7.87493 11.7656C7.87493 14.0437 9.72181 15.8906 11.9999 15.8906C14.2781 15.8906 16.1249 14.0437 16.1249 11.7656C16.1249 9.48748 14.2781 7.6406 11.9999 7.6406ZM13.8562 13.6219C13.6127 13.866 13.3234 14.0596 13.0048 14.1916C12.6862 14.3235 12.3447 14.3911 11.9999 14.3906C11.2992 14.3906 10.6406 14.1164 10.1437 13.6219C9.89952 13.3784 9.7059 13.089 9.57397 12.7705C9.44204 12.4519 9.37439 12.1104 9.37493 11.7656C9.37493 11.0648 9.64915 10.4062 10.1437 9.90935C10.6406 9.41248 11.2992 9.1406 11.9999 9.1406C12.7007 9.1406 13.3593 9.41248 13.8562 9.90935C14.1003 10.1528 14.294 10.4422 14.4259 10.7607C14.5578 11.0793 14.6255 11.4208 14.6249 11.7656C14.6249 12.4664 14.3507 13.125 13.8562 13.6219Z" fill="#0064FF"/>
</svg>
