<svg width="28" height="28" viewBox="0 0 28 28" fill="none" xmlns="http://www.w3.org/2000/svg">
<path d="M7.75 2.5C6.88805 2.5 6.0614 2.84241 5.4519 3.4519C4.84241 4.0614 4.5 4.88805 4.5 5.75V22.25C4.5 23.112 4.84241 23.9386 5.4519 24.5481C6.0614 25.1576 6.88805 25.5 7.75 25.5H22.75C22.9489 25.5 23.1397 25.421 23.2803 25.2803C23.421 25.1397 23.5 24.9489 23.5 24.75C23.5 24.5511 23.421 24.3603 23.2803 24.2197C23.1397 24.079 22.9489 24 22.75 24H7.75C7.32919 24 6.92248 23.8483 6.60439 23.5729C6.28629 23.2974 6.07812 22.9165 6.018 22.5H22.75C22.9489 22.5 23.1397 22.421 23.2803 22.2803C23.421 22.1397 23.5 21.9489 23.5 21.75V5.75C23.5 4.88805 23.1576 4.0614 22.5481 3.4519C21.9386 2.84241 21.112 2.5 20.25 2.5H7.75ZM22 21H6V5.75C6 4.784 6.784 4 7.75 4H20.25C21.216 4 22 4.784 22 5.75V21ZM9.25 6C8.56 6 8 6.56 8 7.25V9.25C8 9.94 8.56 10.5 9.25 10.5H18.75C19.44 10.5 20 9.94 20 9.25V7.25C20 6.56 19.44 6 18.75 6H9.25ZM9.5 9V7.5H18.5V9H9.5Z" fill="black"/>
</svg>
