<svg width="24" height="24" viewBox="0 0 24 24" fill="none" xmlns="http://www.w3.org/2000/svg">
<g clip-path="url(#clip0_1101_13796)">
<path d="M3 3C1.89543 3 1 3.89543 1 5V19C1 20.1046 1.89543 21 3 21H21C22.1046 21 23 20.1046 23 19V5C23 3.89543 22.1046 3 21 3H3ZM5 10C5 9.44772 5.44772 9 6 9H8.5C9.05229 9 9.5 9.44772 9.5 10C9.5 10.5523 9.05229 11 8.5 11H6C5.44772 11 5 10.5523 5 10ZM5 14C5 13.4477 5.44772 13 6 13H8.5C9.05229 13 9.5 13.4477 9.5 14C9.5 14.5523 9.05229 15 8.5 15H6C5.44772 15 5 14.5523 5 14ZM18 10C18 10.4524 17.8772 10.8964 17.6448 11.2845C17.378 11.7299 17.4452 12.5435 17.8323 12.8894C18.0299 13.066 18.2079 13.2654 18.3621 13.4845C18.7774 14.0745 19.0002 14.7785 19 15.5C19 16.0523 18.5523 16.5 18 16.5H13C12.4477 16.5 12 16.0523 12 15.5C12 14.4518 12.4605 13.5116 13.1906 12.8702C13.5719 12.5351 13.6369 11.7426 13.3708 11.3102C13.1391 10.9336 13.0113 10.5022 13.0007 10.0601C12.9901 9.61797 13.0969 9.18095 13.3103 8.79361C13.5237 8.40627 13.8361 8.08247 14.2155 7.85524C14.5949 7.62802 15.0278 7.5055 15.47 7.50018C15.9122 7.49487 16.3479 7.60695 16.7326 7.825C17.1174 8.04304 17.4374 8.35924 17.66 8.74134C17.8827 9.12344 18 9.55776 18 10Z" fill="#0064FF"/>
<path fill-rule="evenodd" clip-rule="evenodd" d="M21.2786 14.762C21.1867 14.6151 21.0512 14.5005 20.8911 14.4342C20.731 14.3679 20.5542 14.3531 20.3853 14.392L19.1866 14.6673C19.0638 14.6956 18.9361 14.6956 18.8133 14.6673L17.6146 14.392C17.4457 14.3531 17.2689 14.3679 17.1088 14.4342C16.9487 14.5005 16.8132 14.6151 16.7213 14.762L16.068 15.8047C16.0013 15.9113 15.9113 16.0013 15.8046 16.0687L14.762 16.722C14.6153 16.8139 14.5009 16.9491 14.4346 17.109C14.3683 17.2688 14.3534 17.4453 14.392 17.614L14.6673 18.814C14.6954 18.9366 14.6954 19.064 14.6673 19.1867L14.392 20.386C14.3532 20.5548 14.368 20.7315 14.4344 20.8914C14.5007 21.0514 14.6152 21.1868 14.762 21.2787L15.8046 21.932C15.9113 21.9987 16.0013 22.0887 16.0686 22.1953L16.722 23.238C16.91 23.5387 17.2686 23.6873 17.6146 23.608L18.8133 23.3327C18.9361 23.3044 19.0638 23.3044 19.1866 23.3327L20.386 23.608C20.5547 23.6467 20.7314 23.6319 20.8914 23.5656C21.0514 23.4993 21.1867 23.3848 21.2786 23.238L21.932 22.1953C21.9986 22.0887 22.0886 21.9987 22.1953 21.932L23.2386 21.2787C23.3854 21.1866 23.4999 21.0511 23.5661 20.891C23.6322 20.7309 23.6469 20.5542 23.608 20.3853L23.3333 19.1867C23.3051 19.0638 23.3051 18.9362 23.3333 18.8133L23.6086 17.614C23.6474 17.4453 23.6327 17.2687 23.5665 17.1087C23.5003 16.9487 23.3859 16.8133 23.2393 16.7213L22.196 16.068C22.0894 16.0012 21.9994 15.9112 21.9326 15.8047L21.2786 14.762ZM20.9433 17.5133C20.9845 17.4375 20.9947 17.3487 20.9718 17.2655C20.9488 17.1823 20.8945 17.1112 20.8202 17.0672C20.746 17.0233 20.6575 17.0098 20.5735 17.0298C20.4896 17.0497 20.4166 17.1014 20.37 17.174L18.6266 20.1247L17.574 19.1167C17.5427 19.0846 17.5054 19.0592 17.4641 19.0419C17.4228 19.0245 17.3785 19.0157 17.3337 19.0159C17.2889 19.0161 17.2447 19.0253 17.2036 19.043C17.1624 19.0607 17.1253 19.0864 17.0943 19.1188C17.0634 19.1511 17.0393 19.1893 17.0234 19.2312C17.0076 19.2731 17.0003 19.3177 17.0021 19.3624C17.0039 19.4071 17.0146 19.451 17.0337 19.4915C17.0528 19.532 17.0799 19.5682 17.1133 19.598L18.4693 20.8973C18.5056 20.932 18.5492 20.9581 18.597 20.9736C18.6448 20.989 18.6954 20.9935 18.7452 20.9866C18.7949 20.9798 18.8425 20.9618 18.8843 20.934C18.9261 20.9061 18.9611 20.8692 18.9866 20.826L20.9433 17.5133Z" fill="#2DCD73"/>
</g>
<defs>
<clipPath id="clip0_1101_13796">
<rect width="24" height="24" fill="white"/>
</clipPath>
</defs>
</svg>
